<?xml version="1.0" encoding="UTF-8" standalone="no"?><!DOCTYPE svg PUBLIC "-//W3C//DTD SVG 1.1//EN" "http://www.w3.org/Graphics/SVG/1.1/DTD/svg11.dtd"><!-- Generated by graphviz version 2.40.1 (20161225.0304)
 --><!-- Title: snakemake_dag Pages: 1 --><svg xmlns="http://www.w3.org/2000/svg" xmlns:xlink="http://www.w3.org/1999/xlink" width="666pt" height="1204pt" viewBox="0.00 0.00 666.18 1204.00">
<g id="graph0" class="graph" transform="scale(1 1) rotate(0) translate(4 1200)">
<title>snakemake_dag</title>
<polygon fill="#ffffff" stroke="transparent" points="-4,4 -4,-1200 662.1753,-1200 662.1753,4 -4,4"/>
<!-- 0 -->
<g id="node1" class="node">
<title>0</title>
<path fill="none" stroke="#567bd8" stroke-width="2" stroke-dasharray="5,2" d="M224.11,-36C224.11,-36 192.2406,-36 192.2406,-36 186.2406,-36 180.2406,-30 180.2406,-24 180.2406,-24 180.2406,-12 180.2406,-12 180.2406,-6 186.2406,0 192.2406,0 192.2406,0 224.11,0 224.11,0 230.11,0 236.11,-6 236.11,-12 236.11,-12 236.11,-24 236.11,-24 236.11,-30 230.11,-36 224.11,-36"/>
<text text-anchor="middle" x="208.1753" y="-15" font-family="sans" font-size="10.00" fill="#000000">all_demic</text>
</g>
<!-- 1 -->
<g id="node2" class="node">
<title>1</title>
<path fill="none" stroke="#56d8a2" stroke-width="2" stroke-dasharray="5,2" d="M225.4407,-108C225.4407,-108 190.9098,-108 190.9098,-108 184.9098,-108 178.9098,-102 178.9098,-96 178.9098,-96 178.9098,-84 178.9098,-84 178.9098,-78 184.9098,-72 190.9098,-72 190.9098,-72 225.4407,-72 225.4407,-72 231.4407,-72 237.4407,-78 237.4407,-84 237.4407,-84 237.4407,-96 237.4407,-96 237.4407,-102 231.4407,-108 225.4407,-108"/>
<text text-anchor="middle" x="208.1753" y="-87" font-family="sans" font-size="10.00" fill="#000000">run_demic</text>
</g>
<!-- 1&#45;&gt;0 -->
<g id="edge1" class="edge">
<title>1-&gt;0</title>
<path fill="none" stroke="#c0c0c0" stroke-width="2" d="M208.1753,-71.8314C208.1753,-64.131 208.1753,-54.9743 208.1753,-46.4166"/>
<polygon fill="#c0c0c0" stroke="#c0c0c0" stroke-width="2" points="211.6754,-46.4132 208.1753,-36.4133 204.6754,-46.4133 211.6754,-46.4132"/>
</g>
<!-- 2 -->
<g id="node3" class="node">
<title>2</title>
<path fill="none" stroke="#56d89a" stroke-width="2" stroke-dasharray="5,2" d="M186.7277,-180C186.7277,-180 139.6229,-180 139.6229,-180 133.6229,-180 127.6229,-174 127.6229,-168 127.6229,-168 127.6229,-156 127.6229,-156 127.6229,-150 133.6229,-144 139.6229,-144 139.6229,-144 186.7277,-144 186.7277,-144 192.7277,-144 198.7277,-150 198.7277,-156 198.7277,-156 198.7277,-168 198.7277,-168 198.7277,-174 192.7277,-180 186.7277,-180"/>
<text text-anchor="middle" x="163.1753" y="-159" font-family="sans" font-size="10.00" fill="#000000">samtools_sort</text>
</g>
<!-- 2&#45;&gt;1 -->
<g id="edge2" class="edge">
<title>2-&gt;1</title>
<path fill="none" stroke="#c0c0c0" stroke-width="2" d="M174.5307,-143.8314C179.6079,-135.7079 185.6979,-125.9637 191.2929,-117.0118"/>
<polygon fill="#c0c0c0" stroke="#c0c0c0" stroke-width="2" points="194.3349,-118.7483 196.667,-108.4133 188.3989,-115.0383 194.3349,-118.7483"/>
</g>
<!-- 3 -->
<g id="node4" class="node">
<title>3</title>
<path fill="none" stroke="#56d89a" stroke-width="2" stroke-dasharray="5,2" d="M367.7277,-180C367.7277,-180 320.6229,-180 320.6229,-180 314.6229,-180 308.6229,-174 308.6229,-168 308.6229,-168 308.6229,-156 308.6229,-156 308.6229,-150 314.6229,-144 320.6229,-144 320.6229,-144 367.7277,-144 367.7277,-144 373.7277,-144 379.7277,-150 379.7277,-156 379.7277,-156 379.7277,-168 379.7277,-168 379.7277,-174 373.7277,-180 367.7277,-180"/>
<text text-anchor="middle" x="344.1753" y="-159" font-family="sans" font-size="10.00" fill="#000000">samtools_sort</text>
</g>
<!-- 3&#45;&gt;1 -->
<g id="edge3" class="edge">
<title>3-&gt;1</title>
<path fill="none" stroke="#c0c0c0" stroke-width="2" d="M309.8567,-143.8314C290.7002,-133.6897 266.7725,-121.0221 246.9418,-110.5235"/>
<polygon fill="#c0c0c0" stroke="#c0c0c0" stroke-width="2" points="248.339,-107.303 237.8635,-105.7173 245.0637,-113.4895 248.339,-107.303"/>
</g>
<!-- 4 -->
<g id="node5" class="node">
<title>4</title>
<path fill="none" stroke="#88d856" stroke-width="2" stroke-dasharray="5,2" d="M136.1753,-252C136.1753,-252 106.1753,-252 106.1753,-252 100.1753,-252 94.1753,-246 94.1753,-240 94.1753,-240 94.1753,-228 94.1753,-228 94.1753,-222 100.1753,-216 106.1753,-216 106.1753,-216 136.1753,-216 136.1753,-216 142.1753,-216 148.1753,-222 148.1753,-228 148.1753,-228 148.1753,-240 148.1753,-240 148.1753,-246 142.1753,-252 136.1753,-252"/>
<text text-anchor="middle" x="121.1753" y="-231" font-family="sans" font-size="10.00" fill="#000000">bowtie2</text>
</g>
<!-- 4&#45;&gt;2 -->
<g id="edge4" class="edge">
<title>4-&gt;2</title>
<path fill="none" stroke="#c0c0c0" stroke-width="2" d="M131.7736,-215.8314C136.463,-207.7925 142.0781,-198.1666 147.2551,-189.2918"/>
<polygon fill="#c0c0c0" stroke="#c0c0c0" stroke-width="2" points="150.4187,-190.8146 152.4342,-180.4133 144.3722,-187.2875 150.4187,-190.8146"/>
</g>
<!-- 5 -->
<g id="node6" class="node">
<title>5</title>
<path fill="none" stroke="#88d856" stroke-width="2" stroke-dasharray="5,2" d="M382.1753,-252C382.1753,-252 352.1753,-252 352.1753,-252 346.1753,-252 340.1753,-246 340.1753,-240 340.1753,-240 340.1753,-228 340.1753,-228 340.1753,-222 346.1753,-216 352.1753,-216 352.1753,-216 382.1753,-216 382.1753,-216 388.1753,-216 394.1753,-222 394.1753,-228 394.1753,-228 394.1753,-240 394.1753,-240 394.1753,-246 388.1753,-252 382.1753,-252"/>
<text text-anchor="middle" x="367.1753" y="-231" font-family="sans" font-size="10.00" fill="#000000">bowtie2</text>
</g>
<!-- 5&#45;&gt;3 -->
<g id="edge5" class="edge">
<title>5-&gt;3</title>
<path fill="none" stroke="#c0c0c0" stroke-width="2" d="M361.3714,-215.8314C358.8845,-208.0463 355.9222,-198.7729 353.1627,-190.1347"/>
<polygon fill="#c0c0c0" stroke="#c0c0c0" stroke-width="2" points="356.4343,-188.874 350.0573,-180.4133 349.7663,-191.0041 356.4343,-188.874"/>
</g>
<!-- 6 -->
<g id="node7" class="node">
<title>6</title>
<path fill="none" stroke="#56d8c9" stroke-width="2" stroke-dasharray="5,2" d="M288.9496,-324C288.9496,-324 239.4009,-324 239.4009,-324 233.4009,-324 227.4009,-318 227.4009,-312 227.4009,-312 227.4009,-300 227.4009,-300 227.4009,-294 233.4009,-288 239.4009,-288 239.4009,-288 288.9496,-288 288.9496,-288 294.9496,-288 300.9496,-294 300.9496,-300 300.9496,-300 300.9496,-312 300.9496,-312 300.9496,-318 294.9496,-324 288.9496,-324"/>
<text text-anchor="middle" x="264.1753" y="-303" font-family="sans" font-size="10.00" fill="#000000">bowtie2_build</text>
</g>
<!-- 6&#45;&gt;4 -->
<g id="edge6" class="edge">
<title>6-&gt;4</title>
<path fill="none" stroke="#c0c0c0" stroke-width="2" d="M228.0903,-287.8314C206.4682,-276.9447 179.0653,-263.1474 157.4155,-252.2468"/>
<polygon fill="#c0c0c0" stroke="#c0c0c0" stroke-width="2" points="158.7253,-248.9877 148.2196,-247.6167 155.5773,-255.24 158.7253,-248.9877"/>
</g>
<!-- 6&#45;&gt;5 -->
<g id="edge11" class="edge">
<title>6-&gt;5</title>
<path fill="none" stroke="#c0c0c0" stroke-width="2" d="M290.1665,-287.8314C303.0969,-278.7927 318.8974,-267.7476 332.8136,-258.0198"/>
<polygon fill="#c0c0c0" stroke="#c0c0c0" stroke-width="2" points="335.0015,-260.7608 341.1923,-252.1628 330.991,-255.0235 335.0015,-260.7608"/>
</g>
<!-- 7 -->
<g id="node8" class="node">
<title>7</title>
<path fill="none" stroke="#8fd856" stroke-width="2" stroke-dasharray="5,2" d="M459.707,-756C459.707,-756 422.6435,-756 422.6435,-756 416.6435,-756 410.6435,-750 410.6435,-744 410.6435,-744 410.6435,-732 410.6435,-732 410.6435,-726 416.6435,-720 422.6435,-720 422.6435,-720 459.707,-720 459.707,-720 465.707,-720 471.707,-726 471.707,-732 471.707,-732 471.707,-744 471.707,-744 471.707,-750 465.707,-756 459.707,-756"/>
<text text-anchor="middle" x="441.1753" y="-735" font-family="sans" font-size="10.00" fill="#000000">filter_reads</text>
</g>
<!-- 7&#45;&gt;4 -->
<g id="edge7" class="edge">
<title>7-&gt;4</title>
<path fill="none" stroke="#c0c0c0" stroke-width="2" d="M410.5087,-735.2015C330.1385,-727.5933 118.0067,-705.6472 95.1753,-684 65.5084,-655.8719 76.1753,-634.8816 76.1753,-594 76.1753,-594 76.1753,-594 76.1753,-378 76.1753,-335.8263 93.9773,-289.738 107.1875,-261.3433"/>
<polygon fill="#c0c0c0" stroke="#c0c0c0" stroke-width="2" points="110.4648,-262.6034 111.6319,-252.0731 104.1527,-259.5772 110.4648,-262.6034"/>
</g>
<!-- 7&#45;&gt;5 -->
<g id="edge12" class="edge">
<title>7-&gt;5</title>
<path fill="none" stroke="#c0c0c0" stroke-width="2" d="M472.0167,-723.6387C475.0888,-722.354 478.1787,-721.1182 481.1753,-720 533.3431,-700.5331 563.478,-724.98 601.1753,-684 628.8527,-653.9123 620.1753,-634.8816 620.1753,-594 620.1753,-594 620.1753,-594 620.1753,-378 620.1753,-279.9328 474.824,-247.799 404.4638,-237.9889"/>
<polygon fill="#c0c0c0" stroke="#c0c0c0" stroke-width="2" points="404.6211,-234.4796 394.2507,-236.6487 403.7103,-241.4201 404.6211,-234.4796"/>
</g>
<!-- 19 -->
<g id="node20" class="node">
<title>19</title>
<path fill="none" stroke="#568ad8" stroke-width="2" stroke-dasharray="5,2" d="M580.3333,-684C580.3333,-684 426.0172,-684 426.0172,-684 420.0172,-684 414.0172,-678 414.0172,-672 414.0172,-672 414.0172,-660 414.0172,-660 414.0172,-654 420.0172,-648 426.0172,-648 426.0172,-648 580.3333,-648 580.3333,-648 586.3333,-648 592.3333,-654 592.3333,-660 592.3333,-660 592.3333,-672 592.3333,-672 592.3333,-678 586.3333,-684 580.3333,-684"/>
<text text-anchor="middle" x="503.1753" y="-669" font-family="sans" font-size="10.00" fill="#000000">prep_samples_for_concatenation_paired</text>
<text text-anchor="middle" x="503.1753" y="-657" font-family="sans" font-size="10.00" fill="#000000">group: all</text>
</g>
<!-- 7&#45;&gt;19 -->
<g id="edge33" class="edge">
<title>7-&gt;19</title>
<path fill="none" stroke="#c0c0c0" stroke-width="2" d="M456.8205,-719.8314C464.0343,-711.454 472.7323,-701.3531 480.6357,-692.1749"/>
<polygon fill="#c0c0c0" stroke="#c0c0c0" stroke-width="2" points="483.4463,-694.2748 487.3194,-684.4133 478.1419,-689.7071 483.4463,-694.2748"/>
</g>
<!-- 8 -->
<g id="node9" class="node">
<title>8</title>
<path fill="none" stroke="#8fd856" stroke-width="2" stroke-dasharray="5,2" d="M539.707,-756C539.707,-756 502.6435,-756 502.6435,-756 496.6435,-756 490.6435,-750 490.6435,-744 490.6435,-744 490.6435,-732 490.6435,-732 490.6435,-726 496.6435,-720 502.6435,-720 502.6435,-720 539.707,-720 539.707,-720 545.707,-720 551.707,-726 551.707,-732 551.707,-732 551.707,-744 551.707,-744 551.707,-750 545.707,-756 539.707,-756"/>
<text text-anchor="middle" x="521.1753" y="-735" font-family="sans" font-size="10.00" fill="#000000">filter_reads</text>
</g>
<!-- 8&#45;&gt;4 -->
<g id="edge8" class="edge">
<title>8-&gt;4</title>
<path fill="none" stroke="#c0c0c0" stroke-width="2" d="M490.2147,-723.9359C487.1668,-722.5911 484.115,-721.26 481.1753,-720 466.563,-713.737 226.5119,-624.0788 216.1753,-612 209.9514,-604.7272 180.1753,-457.6198 180.1753,-450 180.1753,-450 180.1753,-450 180.1753,-378 180.1753,-334.5511 156.8915,-288.8635 139.5778,-260.8967"/>
<polygon fill="#c0c0c0" stroke="#c0c0c0" stroke-width="2" points="142.3073,-258.6675 133.9774,-252.1204 136.4064,-262.4331 142.3073,-258.6675"/>
</g>
<!-- 8&#45;&gt;5 -->
<g id="edge13" class="edge">
<title>8-&gt;5</title>
<path fill="none" stroke="#c0c0c0" stroke-width="2" d="M552.0037,-728.5372C574.7236,-720.1351 604.9046,-705.7705 624.1753,-684 652.5164,-651.9824 658.1753,-636.7592 658.1753,-594 658.1753,-594 658.1753,-594 658.1753,-378 658.1753,-329.1738 635.5746,-315.4206 595.1753,-288 564.2818,-267.0314 460.4542,-248.3679 404.1786,-239.4859"/>
<polygon fill="#c0c0c0" stroke="#c0c0c0" stroke-width="2" points="404.6713,-236.0205 394.2524,-237.9429 403.5961,-242.9375 404.6713,-236.0205"/>
</g>
<!-- 8&#45;&gt;19 -->
<g id="edge34" class="edge">
<title>8-&gt;19</title>
<path fill="none" stroke="#c0c0c0" stroke-width="2" d="M516.6331,-719.8314C514.6868,-712.0463 512.3685,-702.7729 510.2089,-694.1347"/>
<polygon fill="#c0c0c0" stroke="#c0c0c0" stroke-width="2" points="513.5995,-693.2658 507.7786,-684.4133 506.8085,-694.9636 513.5995,-693.2658"/>
</g>
<!-- 9 -->
<g id="node10" class="node">
<title>9</title>
<path fill="none" stroke="#8fd856" stroke-width="2" stroke-dasharray="5,2" d="M162.707,-756C162.707,-756 125.6435,-756 125.6435,-756 119.6435,-756 113.6435,-750 113.6435,-744 113.6435,-744 113.6435,-732 113.6435,-732 113.6435,-726 119.6435,-720 125.6435,-720 125.6435,-720 162.707,-720 162.707,-720 168.707,-720 174.707,-726 174.707,-732 174.707,-732 174.707,-744 174.707,-744 174.707,-750 168.707,-756 162.707,-756"/>
<text text-anchor="middle" x="144.1753" y="-735" font-family="sans" font-size="10.00" fill="#000000">filter_reads</text>
</g>
<!-- 9&#45;&gt;4 -->
<g id="edge9" class="edge">
<title>9-&gt;4</title>
<path fill="none" stroke="#c0c0c0" stroke-width="2" d="M113.5845,-732.0177C86.2577,-725.0895 47.1029,-710.9858 24.1753,-684 -2.629,-652.4514 .1753,-635.3978 .1753,-594 .1753,-594 .1753,-594 .1753,-378 .1753,-336.6022 -1.2624,-320.6604 24.1753,-288 39.4091,-268.4407 63.8231,-254.9038 84.3461,-246.2753"/>
<polygon fill="#c0c0c0" stroke="#c0c0c0" stroke-width="2" points="85.7495,-249.484 93.7521,-242.5407 83.1663,-242.978 85.7495,-249.484"/>
</g>
<!-- 9&#45;&gt;5 -->
<g id="edge14" class="edge">
<title>9-&gt;5</title>
<path fill="none" stroke="#c0c0c0" stroke-width="2" d="M175.0563,-723.7423C178.1204,-722.4366 181.1976,-721.1676 184.1753,-720 230.8873,-701.6829 251.7038,-714.9763 291.1753,-684 328.4224,-654.7693 348.1753,-641.3474 348.1753,-594 348.1753,-594 348.1753,-594 348.1753,-378 348.1753,-337.5282 355.6432,-291.2037 361.2153,-262.2725"/>
<polygon fill="#c0c0c0" stroke="#c0c0c0" stroke-width="2" points="364.7235,-262.5746 363.2385,-252.0844 357.8576,-261.2111 364.7235,-262.5746"/>
</g>
<!-- 20 -->
<g id="node21" class="node">
<title>20</title>
<path fill="none" stroke="#568ad8" stroke-width="2" stroke-dasharray="5,2" d="M270.3333,-684C270.3333,-684 116.0172,-684 116.0172,-684 110.0172,-684 104.0172,-678 104.0172,-672 104.0172,-672 104.0172,-660 104.0172,-660 104.0172,-654 110.0172,-648 116.0172,-648 116.0172,-648 270.3333,-648 270.3333,-648 276.3333,-648 282.3333,-654 282.3333,-660 282.3333,-660 282.3333,-672 282.3333,-672 282.3333,-678 276.3333,-684 270.3333,-684"/>
<text text-anchor="middle" x="193.1753" y="-669" font-family="sans" font-size="10.00" fill="#000000">prep_samples_for_concatenation_paired</text>
<text text-anchor="middle" x="193.1753" y="-657" font-family="sans" font-size="10.00" fill="#000000">group: all</text>
</g>
<!-- 9&#45;&gt;20 -->
<g id="edge35" class="edge">
<title>9-&gt;20</title>
<path fill="none" stroke="#c0c0c0" stroke-width="2" d="M156.54,-719.8314C162.1261,-711.6232 168.8382,-701.7606 174.9824,-692.7323"/>
<polygon fill="#c0c0c0" stroke="#c0c0c0" stroke-width="2" points="177.9112,-694.6496 180.644,-684.4133 172.1242,-690.7112 177.9112,-694.6496"/>
</g>
<!-- 10 -->
<g id="node11" class="node">
<title>10</title>
<path fill="none" stroke="#8fd856" stroke-width="2" stroke-dasharray="5,2" d="M242.707,-756C242.707,-756 205.6435,-756 205.6435,-756 199.6435,-756 193.6435,-750 193.6435,-744 193.6435,-744 193.6435,-732 193.6435,-732 193.6435,-726 199.6435,-720 205.6435,-720 205.6435,-720 242.707,-720 242.707,-720 248.707,-720 254.707,-726 254.707,-732 254.707,-732 254.707,-744 254.707,-744 254.707,-750 248.707,-756 242.707,-756"/>
<text text-anchor="middle" x="224.1753" y="-735" font-family="sans" font-size="10.00" fill="#000000">filter_reads</text>
</g>
<!-- 10&#45;&gt;4 -->
<g id="edge10" class="edge">
<title>10-&gt;4</title>
<path fill="none" stroke="#c0c0c0" stroke-width="2" d="M193.3391,-723.6245C190.266,-722.3426 187.1743,-721.1114 184.1753,-720 131.1647,-700.355 101.6207,-724.4982 62.1753,-684 33.2906,-654.3444 38.1753,-635.3978 38.1753,-594 38.1753,-594 38.1753,-594 38.1753,-378 38.1753,-336.6022 40.71,-323.398 62.1753,-288 68.7564,-277.1472 78.1597,-267.1601 87.5308,-258.8041"/>
<polygon fill="#c0c0c0" stroke="#c0c0c0" stroke-width="2" points="89.971,-261.3238 95.3323,-252.1855 85.4425,-255.9859 89.971,-261.3238"/>
</g>
<!-- 10&#45;&gt;5 -->
<g id="edge15" class="edge">
<title>10-&gt;5</title>
<path fill="none" stroke="#c0c0c0" stroke-width="2" d="M254.8071,-734.1278C286.2241,-728.5308 334.3203,-715.1755 362.1753,-684 389.7577,-653.1295 386.1753,-635.3978 386.1753,-594 386.1753,-594 386.1753,-594 386.1753,-378 386.1753,-337.5282 378.7073,-291.2037 373.1353,-262.2725"/>
<polygon fill="#c0c0c0" stroke="#c0c0c0" stroke-width="2" points="376.4929,-261.2111 371.1121,-252.0844 369.627,-262.5746 376.4929,-261.2111"/>
</g>
<!-- 10&#45;&gt;20 -->
<g id="edge36" class="edge">
<title>10-&gt;20</title>
<path fill="none" stroke="#c0c0c0" stroke-width="2" d="M216.3527,-719.8314C212.9643,-711.9617 208.9212,-702.5712 205.1676,-693.8533"/>
<polygon fill="#c0c0c0" stroke="#c0c0c0" stroke-width="2" points="208.2725,-692.214 201.1032,-684.4133 201.8431,-694.9822 208.2725,-692.214"/>
</g>
<!-- 11 -->
<g id="node12" class="node">
<title>11</title>
<path fill="none" stroke="#68d856" stroke-width="2" stroke-dasharray="5,2" d="M279.1753,-396C279.1753,-396 249.1753,-396 249.1753,-396 243.1753,-396 237.1753,-390 237.1753,-384 237.1753,-384 237.1753,-372 237.1753,-372 237.1753,-366 243.1753,-360 249.1753,-360 249.1753,-360 279.1753,-360 279.1753,-360 285.1753,-360 291.1753,-366 291.1753,-372 291.1753,-372 291.1753,-384 291.1753,-384 291.1753,-390 285.1753,-396 279.1753,-396"/>
<text text-anchor="middle" x="264.1753" y="-375" font-family="sans" font-size="10.00" fill="#000000">maxbin</text>
</g>
<!-- 11&#45;&gt;6 -->
<g id="edge16" class="edge">
<title>11-&gt;6</title>
<path fill="none" stroke="#c0c0c0" stroke-width="2" d="M264.1753,-359.8314C264.1753,-352.131 264.1753,-342.9743 264.1753,-334.4166"/>
<polygon fill="#c0c0c0" stroke="#c0c0c0" stroke-width="2" points="267.6754,-334.4132 264.1753,-324.4133 260.6754,-334.4133 267.6754,-334.4132"/>
</g>
<!-- 12 -->
<g id="node13" class="node">
<title>12</title>
<path fill="none" stroke="#d88556" stroke-width="2" stroke-dasharray="5,2" d="M518.6353,-828C518.6353,-828 461.7153,-828 461.7153,-828 455.7153,-828 449.7153,-822 449.7153,-816 449.7153,-816 449.7153,-804 449.7153,-804 449.7153,-798 455.7153,-792 461.7153,-792 461.7153,-792 518.6353,-792 518.6353,-792 524.6353,-792 530.6353,-798 530.6353,-804 530.6353,-804 530.6353,-816 530.6353,-816 530.6353,-822 524.6353,-828 518.6353,-828"/>
<text text-anchor="middle" x="490.1753" y="-813" font-family="sans" font-size="10.00" fill="#000000">aggregate_reads</text>
<text text-anchor="middle" x="490.1753" y="-801" font-family="sans" font-size="10.00" fill="#000000">sample: TEST1</text>
</g>
<!-- 12&#45;&gt;7 -->
<g id="edge17" class="edge">
<title>12-&gt;7</title>
<path fill="none" stroke="#c0c0c0" stroke-width="2" d="M477.8105,-791.8314C472.2244,-783.6232 465.5123,-773.7606 459.3681,-764.7323"/>
<polygon fill="#c0c0c0" stroke="#c0c0c0" stroke-width="2" points="462.2263,-762.7112 453.7065,-756.4133 456.4393,-766.6496 462.2263,-762.7112"/>
</g>
<!-- 12&#45;&gt;8 -->
<g id="edge19" class="edge">
<title>12-&gt;8</title>
<path fill="none" stroke="#c0c0c0" stroke-width="2" d="M497.9979,-791.8314C501.3862,-783.9617 505.4294,-774.5712 509.1829,-765.8533"/>
<polygon fill="#c0c0c0" stroke="#c0c0c0" stroke-width="2" points="512.5074,-766.9822 513.2473,-756.4133 506.078,-764.214 512.5074,-766.9822"/>
</g>
<!-- 13 -->
<g id="node14" class="node">
<title>13</title>
<path fill="none" stroke="#d87d56" stroke-width="2" stroke-dasharray="5,2" d="M420.1753,-828C420.1753,-828 390.1753,-828 390.1753,-828 384.1753,-828 378.1753,-822 378.1753,-816 378.1753,-816 378.1753,-804 378.1753,-804 378.1753,-798 384.1753,-792 390.1753,-792 390.1753,-792 420.1753,-792 420.1753,-792 426.1753,-792 432.1753,-798 432.1753,-804 432.1753,-804 432.1753,-816 432.1753,-816 432.1753,-822 426.1753,-828 420.1753,-828"/>
<text text-anchor="middle" x="405.1753" y="-807" font-family="sans" font-size="10.00" fill="#000000">qc_final</text>
</g>
<!-- 13&#45;&gt;7 -->
<g id="edge18" class="edge">
<title>13-&gt;7</title>
<path fill="none" stroke="#c0c0c0" stroke-width="2" d="M414.2596,-791.8314C418.2367,-783.8771 422.9907,-774.369 427.3891,-765.5723"/>
<polygon fill="#c0c0c0" stroke="#c0c0c0" stroke-width="2" points="430.6269,-766.9228 431.9686,-756.4133 424.3659,-763.7923 430.6269,-766.9228"/>
</g>
<!-- 14 -->
<g id="node15" class="node">
<title>14</title>
<path fill="none" stroke="#d87d56" stroke-width="2" stroke-dasharray="5,2" d="M590.1753,-828C590.1753,-828 560.1753,-828 560.1753,-828 554.1753,-828 548.1753,-822 548.1753,-816 548.1753,-816 548.1753,-804 548.1753,-804 548.1753,-798 554.1753,-792 560.1753,-792 560.1753,-792 590.1753,-792 590.1753,-792 596.1753,-792 602.1753,-798 602.1753,-804 602.1753,-804 602.1753,-816 602.1753,-816 602.1753,-822 596.1753,-828 590.1753,-828"/>
<text text-anchor="middle" x="575.1753" y="-807" font-family="sans" font-size="10.00" fill="#000000">qc_final</text>
</g>
<!-- 14&#45;&gt;8 -->
<g id="edge20" class="edge">
<title>14-&gt;8</title>
<path fill="none" stroke="#c0c0c0" stroke-width="2" d="M561.5488,-791.8314C555.3292,-783.5386 547.843,-773.557 541.0153,-764.4533"/>
<polygon fill="#c0c0c0" stroke="#c0c0c0" stroke-width="2" points="543.7853,-762.3133 534.9852,-756.4133 538.1852,-766.5133 543.7853,-762.3133"/>
</g>
<!-- 15 -->
<g id="node16" class="node">
<title>15</title>
<path fill="none" stroke="#d88556" stroke-width="2" stroke-dasharray="5,2" d="M217.6353,-828C217.6353,-828 160.7153,-828 160.7153,-828 154.7153,-828 148.7153,-822 148.7153,-816 148.7153,-816 148.7153,-804 148.7153,-804 148.7153,-798 154.7153,-792 160.7153,-792 160.7153,-792 217.6353,-792 217.6353,-792 223.6353,-792 229.6353,-798 229.6353,-804 229.6353,-804 229.6353,-816 229.6353,-816 229.6353,-822 223.6353,-828 217.6353,-828"/>
<text text-anchor="middle" x="189.1753" y="-813" font-family="sans" font-size="10.00" fill="#000000">aggregate_reads</text>
<text text-anchor="middle" x="189.1753" y="-801" font-family="sans" font-size="10.00" fill="#000000">sample: TEST2</text>
</g>
<!-- 15&#45;&gt;9 -->
<g id="edge21" class="edge">
<title>15-&gt;9</title>
<path fill="none" stroke="#c0c0c0" stroke-width="2" d="M177.8199,-791.8314C172.7427,-783.7079 166.6526,-773.9637 161.0576,-765.0118"/>
<polygon fill="#c0c0c0" stroke="#c0c0c0" stroke-width="2" points="163.9516,-763.0383 155.6836,-756.4133 158.0156,-766.7483 163.9516,-763.0383"/>
</g>
<!-- 15&#45;&gt;10 -->
<g id="edge23" class="edge">
<title>15-&gt;10</title>
<path fill="none" stroke="#c0c0c0" stroke-width="2" d="M198.0072,-791.8314C201.8739,-783.8771 206.4959,-774.369 210.7721,-765.5723"/>
<polygon fill="#c0c0c0" stroke="#c0c0c0" stroke-width="2" points="214.0002,-766.9371 215.2244,-756.4133 207.7046,-763.8768 214.0002,-766.9371"/>
</g>
<!-- 16 -->
<g id="node17" class="node">
<title>16</title>
<path fill="none" stroke="#d87d56" stroke-width="2" stroke-dasharray="5,2" d="M119.1753,-828C119.1753,-828 89.1753,-828 89.1753,-828 83.1753,-828 77.1753,-822 77.1753,-816 77.1753,-816 77.1753,-804 77.1753,-804 77.1753,-798 83.1753,-792 89.1753,-792 89.1753,-792 119.1753,-792 119.1753,-792 125.1753,-792 131.1753,-798 131.1753,-804 131.1753,-804 131.1753,-816 131.1753,-816 131.1753,-822 125.1753,-828 119.1753,-828"/>
<text text-anchor="middle" x="104.1753" y="-807" font-family="sans" font-size="10.00" fill="#000000">qc_final</text>
</g>
<!-- 16&#45;&gt;9 -->
<g id="edge22" class="edge">
<title>16-&gt;9</title>
<path fill="none" stroke="#c0c0c0" stroke-width="2" d="M114.269,-791.8314C118.735,-783.7925 124.0827,-774.1666 129.0132,-765.2918"/>
<polygon fill="#c0c0c0" stroke="#c0c0c0" stroke-width="2" points="132.1487,-766.8546 133.9457,-756.4133 126.0296,-763.4551 132.1487,-766.8546"/>
</g>
<!-- 17 -->
<g id="node18" class="node">
<title>17</title>
<path fill="none" stroke="#d87d56" stroke-width="2" stroke-dasharray="5,2" d="M289.1753,-828C289.1753,-828 259.1753,-828 259.1753,-828 253.1753,-828 247.1753,-822 247.1753,-816 247.1753,-816 247.1753,-804 247.1753,-804 247.1753,-798 253.1753,-792 259.1753,-792 259.1753,-792 289.1753,-792 289.1753,-792 295.1753,-792 301.1753,-798 301.1753,-804 301.1753,-804 301.1753,-816 301.1753,-816 301.1753,-822 295.1753,-828 289.1753,-828"/>
<text text-anchor="middle" x="274.1753" y="-807" font-family="sans" font-size="10.00" fill="#000000">qc_final</text>
</g>
<!-- 17&#45;&gt;10 -->
<g id="edge24" class="edge">
<title>17-&gt;10</title>
<path fill="none" stroke="#c0c0c0" stroke-width="2" d="M261.5582,-791.8314C255.8581,-783.6232 249.009,-773.7606 242.7394,-764.7323"/>
<polygon fill="#c0c0c0" stroke="#c0c0c0" stroke-width="2" points="245.5411,-762.6306 236.9623,-756.4133 239.7915,-766.6234 245.5411,-762.6306"/>
</g>
<!-- 18 -->
<g id="node19" class="node">
<title>18</title>
<path fill="none" stroke="#56d8c1" stroke-width="2" stroke-dasharray="5,2" d="M298.2533,-468C298.2533,-468 230.0972,-468 230.0972,-468 224.0972,-468 218.0972,-462 218.0972,-456 218.0972,-456 218.0972,-444 218.0972,-444 218.0972,-438 224.0972,-432 230.0972,-432 230.0972,-432 298.2533,-432 298.2533,-432 304.2533,-432 310.2533,-438 310.2533,-444 310.2533,-444 310.2533,-456 310.2533,-456 310.2533,-462 304.2533,-468 298.2533,-468"/>
<text text-anchor="middle" x="264.1753" y="-447" font-family="sans" font-size="10.00" fill="#000000">coassemble_paired</text>
</g>
<!-- 18&#45;&gt;11 -->
<g id="edge25" class="edge">
<title>18-&gt;11</title>
<path fill="none" stroke="#c0c0c0" stroke-width="2" d="M264.1753,-431.8314C264.1753,-424.131 264.1753,-414.9743 264.1753,-406.4166"/>
<polygon fill="#c0c0c0" stroke="#c0c0c0" stroke-width="2" points="267.6754,-406.4132 264.1753,-396.4133 260.6754,-406.4133 267.6754,-406.4132"/>
</g>
<!-- 19&#45;&gt;11 -->
<g id="edge26" class="edge">
<title>19-&gt;11</title>
<path fill="none" stroke="#c0c0c0" stroke-width="2" d="M490.077,-647.757C460.9163,-607.5107 387.7937,-508.6048 319.1753,-432 310.4562,-422.2661 300.3857,-412.1005 291.2636,-403.2491"/>
<polygon fill="#c0c0c0" stroke="#c0c0c0" stroke-width="2" points="293.5141,-400.558 283.8746,-396.1613 288.6684,-405.6097 293.5141,-400.558"/>
</g>
<!-- 30 -->
<g id="node31" class="node">
<title>30</title>
<path fill="none" stroke="#56d86b" stroke-width="2" stroke-dasharray="5,2" d="M291.4267,-612C291.4267,-612 236.9239,-612 236.9239,-612 230.9239,-612 224.9239,-606 224.9239,-600 224.9239,-600 224.9239,-588 224.9239,-588 224.9239,-582 230.9239,-576 236.9239,-576 236.9239,-576 291.4267,-576 291.4267,-576 297.4267,-576 303.4267,-582 303.4267,-588 303.4267,-588 303.4267,-600 303.4267,-600 303.4267,-606 297.4267,-612 291.4267,-612"/>
<text text-anchor="middle" x="264.1753" y="-591" font-family="sans" font-size="10.00" fill="#000000">all_prep_paired</text>
</g>
<!-- 19&#45;&gt;30 -->
<g id="edge50" class="edge">
<title>19-&gt;30</title>
<path fill="none" stroke="#c0c0c0" stroke-width="2" d="M443.174,-647.9243C403.0636,-635.8408 350.9464,-620.1403 313.3025,-608.7998"/>
<polygon fill="#c0c0c0" stroke="#c0c0c0" stroke-width="2" points="314.1609,-605.4031 303.5764,-605.8698 312.1417,-612.1056 314.1609,-605.4031"/>
</g>
<!-- 20&#45;&gt;11 -->
<g id="edge27" class="edge">
<title>20-&gt;11</title>
<path fill="none" stroke="#c0c0c0" stroke-width="2" d="M185.5073,-647.8756C181.5614,-637.5642 177.1698,-624.2907 175.1753,-612 162.1341,-531.6366 169.202,-502.9259 209.1753,-432 215.1715,-421.3606 223.8827,-411.444 232.6109,-403.0871"/>
<polygon fill="#c0c0c0" stroke="#c0c0c0" stroke-width="2" points="235.1768,-405.4844 240.2177,-396.1656 230.4658,-400.3069 235.1768,-405.4844"/>
</g>
<!-- 20&#45;&gt;30 -->
<g id="edge51" class="edge">
<title>20-&gt;30</title>
<path fill="none" stroke="#c0c0c0" stroke-width="2" d="M211.0916,-647.8314C219.5195,-639.2848 229.7163,-628.9443 238.9113,-619.6198"/>
<polygon fill="#c0c0c0" stroke="#c0c0c0" stroke-width="2" points="241.4884,-621.9912 246.0177,-612.4133 236.5041,-617.0761 241.4884,-621.9912"/>
</g>
<!-- 21 -->
<g id="node22" class="node">
<title>21</title>
<path fill="none" stroke="#d87556" stroke-width="2" stroke-dasharray="5,2" d="M457.1533,-900C457.1533,-900 365.1973,-900 365.1973,-900 359.1973,-900 353.1973,-894 353.1973,-888 353.1973,-888 353.1973,-876 353.1973,-876 353.1973,-870 359.1973,-864 365.1973,-864 365.1973,-864 457.1533,-864 457.1533,-864 463.1533,-864 469.1533,-870 469.1533,-876 469.1533,-876 469.1533,-888 469.1533,-888 469.1533,-894 463.1533,-900 457.1533,-900"/>
<text text-anchor="middle" x="411.1753" y="-885" font-family="sans" font-size="10.00" fill="#000000">remove_low_complexity</text>
<text text-anchor="middle" x="411.1753" y="-873" font-family="sans" font-size="10.00" fill="#000000">rp: 1</text>
</g>
<!-- 21&#45;&gt;13 -->
<g id="edge28" class="edge">
<title>21-&gt;13</title>
<path fill="none" stroke="#c0c0c0" stroke-width="2" d="M409.6612,-863.8314C409.0195,-856.131 408.2565,-846.9743 407.5433,-838.4166"/>
<polygon fill="#c0c0c0" stroke="#c0c0c0" stroke-width="2" points="411.0282,-838.088 406.7097,-828.4133 404.0523,-838.6694 411.0282,-838.088"/>
</g>
<!-- 22 -->
<g id="node23" class="node">
<title>22</title>
<path fill="none" stroke="#d87556" stroke-width="2" stroke-dasharray="5,2" d="M615.1533,-900C615.1533,-900 523.1973,-900 523.1973,-900 517.1973,-900 511.1973,-894 511.1973,-888 511.1973,-888 511.1973,-876 511.1973,-876 511.1973,-870 517.1973,-864 523.1973,-864 523.1973,-864 615.1533,-864 615.1533,-864 621.1533,-864 627.1533,-870 627.1533,-876 627.1533,-876 627.1533,-888 627.1533,-888 627.1533,-894 621.1533,-900 615.1533,-900"/>
<text text-anchor="middle" x="569.1753" y="-885" font-family="sans" font-size="10.00" fill="#000000">remove_low_complexity</text>
<text text-anchor="middle" x="569.1753" y="-873" font-family="sans" font-size="10.00" fill="#000000">rp: 2</text>
</g>
<!-- 22&#45;&gt;14 -->
<g id="edge29" class="edge">
<title>22-&gt;14</title>
<path fill="none" stroke="#c0c0c0" stroke-width="2" d="M570.6893,-863.8314C571.331,-856.131 572.0941,-846.9743 572.8072,-838.4166"/>
<polygon fill="#c0c0c0" stroke="#c0c0c0" stroke-width="2" points="576.2982,-838.6694 573.6408,-828.4133 569.3224,-838.088 576.2982,-838.6694"/>
</g>
<!-- 23 -->
<g id="node24" class="node">
<title>23</title>
<path fill="none" stroke="#d87556" stroke-width="2" stroke-dasharray="5,2" d="M156.1533,-900C156.1533,-900 64.1973,-900 64.1973,-900 58.1973,-900 52.1973,-894 52.1973,-888 52.1973,-888 52.1973,-876 52.1973,-876 52.1973,-870 58.1973,-864 64.1973,-864 64.1973,-864 156.1533,-864 156.1533,-864 162.1533,-864 168.1533,-870 168.1533,-876 168.1533,-876 168.1533,-888 168.1533,-888 168.1533,-894 162.1533,-900 156.1533,-900"/>
<text text-anchor="middle" x="110.1753" y="-885" font-family="sans" font-size="10.00" fill="#000000">remove_low_complexity</text>
<text text-anchor="middle" x="110.1753" y="-873" font-family="sans" font-size="10.00" fill="#000000">rp: 1</text>
</g>
<!-- 23&#45;&gt;16 -->
<g id="edge30" class="edge">
<title>23-&gt;16</title>
<path fill="none" stroke="#c0c0c0" stroke-width="2" d="M108.6612,-863.8314C108.0195,-856.131 107.2565,-846.9743 106.5433,-838.4166"/>
<polygon fill="#c0c0c0" stroke="#c0c0c0" stroke-width="2" points="110.0282,-838.088 105.7097,-828.4133 103.0523,-838.6694 110.0282,-838.088"/>
</g>
<!-- 24 -->
<g id="node25" class="node">
<title>24</title>
<path fill="none" stroke="#d87556" stroke-width="2" stroke-dasharray="5,2" d="M314.1533,-900C314.1533,-900 222.1973,-900 222.1973,-900 216.1973,-900 210.1973,-894 210.1973,-888 210.1973,-888 210.1973,-876 210.1973,-876 210.1973,-870 216.1973,-864 222.1973,-864 222.1973,-864 314.1533,-864 314.1533,-864 320.1533,-864 326.1533,-870 326.1533,-876 326.1533,-876 326.1533,-888 326.1533,-888 326.1533,-894 320.1533,-900 314.1533,-900"/>
<text text-anchor="middle" x="268.1753" y="-885" font-family="sans" font-size="10.00" fill="#000000">remove_low_complexity</text>
<text text-anchor="middle" x="268.1753" y="-873" font-family="sans" font-size="10.00" fill="#000000">rp: 2</text>
</g>
<!-- 24&#45;&gt;17 -->
<g id="edge31" class="edge">
<title>24-&gt;17</title>
<path fill="none" stroke="#c0c0c0" stroke-width="2" d="M269.6893,-863.8314C270.331,-856.131 271.0941,-846.9743 271.8072,-838.4166"/>
<polygon fill="#c0c0c0" stroke="#c0c0c0" stroke-width="2" points="275.2982,-838.6694 272.6408,-828.4133 268.3224,-838.088 275.2982,-838.6694"/>
</g>
<!-- 25 -->
<g id="node26" class="node">
<title>25</title>
<path fill="none" stroke="#d8d356" stroke-width="2" stroke-dasharray="5,2" d="M308.3158,-540C308.3158,-540 220.0347,-540 220.0347,-540 214.0347,-540 208.0347,-534 208.0347,-528 208.0347,-528 208.0347,-516 208.0347,-516 208.0347,-510 214.0347,-504 220.0347,-504 220.0347,-504 308.3158,-504 308.3158,-504 314.3158,-504 320.3158,-510 320.3158,-516 320.3158,-516 320.3158,-528 320.3158,-528 320.3158,-534 314.3158,-540 308.3158,-540"/>
<text text-anchor="middle" x="264.1753" y="-525" font-family="sans" font-size="10.00" fill="#000000">combine_groups_paired</text>
<text text-anchor="middle" x="264.1753" y="-513" font-family="sans" font-size="10.00" fill="#000000">group: all</text>
</g>
<!-- 25&#45;&gt;18 -->
<g id="edge32" class="edge">
<title>25-&gt;18</title>
<path fill="none" stroke="#c0c0c0" stroke-width="2" d="M264.1753,-503.8314C264.1753,-496.131 264.1753,-486.9743 264.1753,-478.4166"/>
<polygon fill="#c0c0c0" stroke="#c0c0c0" stroke-width="2" points="267.6754,-478.4132 264.1753,-468.4133 260.6754,-478.4133 267.6754,-478.4132"/>
</g>
<!-- 26 -->
<g id="node27" class="node">
<title>26</title>
<path fill="none" stroke="#56d87b" stroke-width="2" stroke-dasharray="5,2" d="M526.8219,-1044C526.8219,-1044 453.5286,-1044 453.5286,-1044 447.5286,-1044 441.5286,-1038 441.5286,-1032 441.5286,-1032 441.5286,-1020 441.5286,-1020 441.5286,-1014 447.5286,-1008 453.5286,-1008 453.5286,-1008 526.8219,-1008 526.8219,-1008 532.8219,-1008 538.8219,-1014 538.8219,-1020 538.8219,-1020 538.8219,-1032 538.8219,-1032 538.8219,-1038 532.8219,-1044 526.8219,-1044"/>
<text text-anchor="middle" x="490.1753" y="-1023" font-family="sans" font-size="10.00" fill="#000000">trimmomatic_paired</text>
</g>
<!-- 26&#45;&gt;21 -->
<g id="edge37" class="edge">
<title>26-&gt;21</title>
<path fill="none" stroke="#c0c0c0" stroke-width="2" d="M463.2543,-1007.85C451.3759,-998.4909 438.2953,-986.0832 430.1753,-972 419.3064,-953.1494 414.625,-928.8687 412.6234,-910.2787"/>
<polygon fill="#c0c0c0" stroke="#c0c0c0" stroke-width="2" points="416.0889,-909.7306 411.7282,-900.0749 409.1157,-910.3425 416.0889,-909.7306"/>
</g>
<!-- 26&#45;&gt;22 -->
<g id="edge39" class="edge">
<title>26-&gt;22</title>
<path fill="none" stroke="#c0c0c0" stroke-width="2" d="M517.0962,-1007.85C528.9746,-998.4909 542.0552,-986.0832 550.1753,-972 561.0441,-953.1494 565.7256,-928.8687 567.7271,-910.2787"/>
<polygon fill="#c0c0c0" stroke="#c0c0c0" stroke-width="2" points="571.2348,-910.3425 568.6224,-900.0749 564.2616,-909.7306 571.2348,-910.3425"/>
</g>
<!-- 27 -->
<g id="node28" class="node">
<title>27</title>
<path fill="none" stroke="#d8c356" stroke-width="2" stroke-dasharray="5,2" d="M529.2753,-972C529.2753,-972 451.0752,-972 451.0752,-972 445.0752,-972 439.0752,-966 439.0752,-960 439.0752,-960 439.0752,-948 439.0752,-948 439.0752,-942 445.0752,-936 451.0752,-936 451.0752,-936 529.2753,-936 529.2753,-936 535.2753,-936 541.2753,-942 541.2753,-948 541.2753,-948 541.2753,-960 541.2753,-960 541.2753,-966 535.2753,-972 529.2753,-972"/>
<text text-anchor="middle" x="490.1753" y="-951" font-family="sans" font-size="10.00" fill="#000000">find_low_complexity</text>
</g>
<!-- 26&#45;&gt;27 -->
<g id="edge47" class="edge">
<title>26-&gt;27</title>
<path fill="none" stroke="#c0c0c0" stroke-width="2" d="M490.1753,-1007.8314C490.1753,-1000.131 490.1753,-990.9743 490.1753,-982.4166"/>
<polygon fill="#c0c0c0" stroke="#c0c0c0" stroke-width="2" points="493.6754,-982.4132 490.1753,-972.4133 486.6754,-982.4133 493.6754,-982.4132"/>
</g>
<!-- 27&#45;&gt;21 -->
<g id="edge38" class="edge">
<title>27-&gt;21</title>
<path fill="none" stroke="#c0c0c0" stroke-width="2" d="M470.2402,-935.8314C460.697,-927.1337 449.1154,-916.5783 438.7446,-907.1265"/>
<polygon fill="#c0c0c0" stroke="#c0c0c0" stroke-width="2" points="440.8525,-904.3121 431.1039,-900.1628 436.1373,-909.4857 440.8525,-904.3121"/>
</g>
<!-- 27&#45;&gt;22 -->
<g id="edge40" class="edge">
<title>27-&gt;22</title>
<path fill="none" stroke="#c0c0c0" stroke-width="2" d="M510.1103,-935.8314C519.6535,-927.1337 531.2351,-916.5783 541.6059,-907.1265"/>
<polygon fill="#c0c0c0" stroke="#c0c0c0" stroke-width="2" points="544.2133,-909.4857 549.2466,-900.1628 539.498,-904.3121 544.2133,-909.4857"/>
</g>
<!-- 28 -->
<g id="node29" class="node">
<title>28</title>
<path fill="none" stroke="#56d87b" stroke-width="2" stroke-dasharray="5,2" d="M225.8219,-1044C225.8219,-1044 152.5286,-1044 152.5286,-1044 146.5286,-1044 140.5286,-1038 140.5286,-1032 140.5286,-1032 140.5286,-1020 140.5286,-1020 140.5286,-1014 146.5286,-1008 152.5286,-1008 152.5286,-1008 225.8219,-1008 225.8219,-1008 231.8219,-1008 237.8219,-1014 237.8219,-1020 237.8219,-1020 237.8219,-1032 237.8219,-1032 237.8219,-1038 231.8219,-1044 225.8219,-1044"/>
<text text-anchor="middle" x="189.1753" y="-1023" font-family="sans" font-size="10.00" fill="#000000">trimmomatic_paired</text>
</g>
<!-- 28&#45;&gt;23 -->
<g id="edge41" class="edge">
<title>28-&gt;23</title>
<path fill="none" stroke="#c0c0c0" stroke-width="2" d="M162.2543,-1007.85C150.3759,-998.4909 137.2953,-986.0832 129.1753,-972 118.3064,-953.1494 113.625,-928.8687 111.6234,-910.2787"/>
<polygon fill="#c0c0c0" stroke="#c0c0c0" stroke-width="2" points="115.0889,-909.7306 110.7282,-900.0749 108.1157,-910.3425 115.0889,-909.7306"/>
</g>
<!-- 28&#45;&gt;24 -->
<g id="edge43" class="edge">
<title>28-&gt;24</title>
<path fill="none" stroke="#c0c0c0" stroke-width="2" d="M216.0962,-1007.85C227.9746,-998.4909 241.0552,-986.0832 249.1753,-972 260.0441,-953.1494 264.7256,-928.8687 266.7271,-910.2787"/>
<polygon fill="#c0c0c0" stroke="#c0c0c0" stroke-width="2" points="270.2348,-910.3425 267.6224,-900.0749 263.2616,-909.7306 270.2348,-910.3425"/>
</g>
<!-- 29 -->
<g id="node30" class="node">
<title>29</title>
<path fill="none" stroke="#d8c356" stroke-width="2" stroke-dasharray="5,2" d="M228.2753,-972C228.2753,-972 150.0752,-972 150.0752,-972 144.0752,-972 138.0752,-966 138.0752,-960 138.0752,-960 138.0752,-948 138.0752,-948 138.0752,-942 144.0752,-936 150.0752,-936 150.0752,-936 228.2753,-936 228.2753,-936 234.2753,-936 240.2753,-942 240.2753,-948 240.2753,-948 240.2753,-960 240.2753,-960 240.2753,-966 234.2753,-972 228.2753,-972"/>
<text text-anchor="middle" x="189.1753" y="-951" font-family="sans" font-size="10.00" fill="#000000">find_low_complexity</text>
</g>
<!-- 28&#45;&gt;29 -->
<g id="edge49" class="edge">
<title>28-&gt;29</title>
<path fill="none" stroke="#c0c0c0" stroke-width="2" d="M189.1753,-1007.8314C189.1753,-1000.131 189.1753,-990.9743 189.1753,-982.4166"/>
<polygon fill="#c0c0c0" stroke="#c0c0c0" stroke-width="2" points="192.6754,-982.4132 189.1753,-972.4133 185.6754,-982.4133 192.6754,-982.4132"/>
</g>
<!-- 29&#45;&gt;23 -->
<g id="edge42" class="edge">
<title>29-&gt;23</title>
<path fill="none" stroke="#c0c0c0" stroke-width="2" d="M169.2402,-935.8314C159.697,-927.1337 148.1154,-916.5783 137.7446,-907.1265"/>
<polygon fill="#c0c0c0" stroke="#c0c0c0" stroke-width="2" points="139.8525,-904.3121 130.1039,-900.1628 135.1373,-909.4857 139.8525,-904.3121"/>
</g>
<!-- 29&#45;&gt;24 -->
<g id="edge44" class="edge">
<title>29-&gt;24</title>
<path fill="none" stroke="#c0c0c0" stroke-width="2" d="M209.1103,-935.8314C218.6535,-927.1337 230.2351,-916.5783 240.6059,-907.1265"/>
<polygon fill="#c0c0c0" stroke="#c0c0c0" stroke-width="2" points="243.2133,-909.4857 248.2466,-900.1628 238.498,-904.3121 243.2133,-909.4857"/>
</g>
<!-- 30&#45;&gt;25 -->
<g id="edge45" class="edge">
<title>30-&gt;25</title>
<path fill="none" stroke="#c0c0c0" stroke-width="2" d="M264.1753,-575.8314C264.1753,-568.131 264.1753,-558.9743 264.1753,-550.4166"/>
<polygon fill="#c0c0c0" stroke="#c0c0c0" stroke-width="2" points="267.6754,-550.4132 264.1753,-540.4133 260.6754,-550.4133 267.6754,-550.4132"/>
</g>
<!-- 31 -->
<g id="node32" class="node">
<title>31</title>
<path fill="none" stroke="#56c9d8" stroke-width="2" stroke-dasharray="5,2" d="M534.8514,-1116C534.8514,-1116 445.4991,-1116 445.4991,-1116 439.4991,-1116 433.4991,-1110 433.4991,-1104 433.4991,-1104 433.4991,-1092 433.4991,-1092 433.4991,-1086 439.4991,-1080 445.4991,-1080 445.4991,-1080 534.8514,-1080 534.8514,-1080 540.8514,-1080 546.8514,-1086 546.8514,-1092 546.8514,-1092 546.8514,-1104 546.8514,-1104 546.8514,-1110 540.8514,-1116 534.8514,-1116"/>
<text text-anchor="middle" x="490.1753" y="-1095" font-family="sans" font-size="10.00" fill="#000000">adapter_removal_paired</text>
</g>
<!-- 31&#45;&gt;26 -->
<g id="edge46" class="edge">
<title>31-&gt;26</title>
<path fill="none" stroke="#c0c0c0" stroke-width="2" d="M490.1753,-1079.8314C490.1753,-1072.131 490.1753,-1062.9743 490.1753,-1054.4166"/>
<polygon fill="#c0c0c0" stroke="#c0c0c0" stroke-width="2" points="493.6754,-1054.4132 490.1753,-1044.4133 486.6754,-1054.4133 493.6754,-1054.4132"/>
</g>
<!-- 32 -->
<g id="node33" class="node">
<title>32</title>
<path fill="none" stroke="#56c9d8" stroke-width="2" stroke-dasharray="5,2" d="M233.8514,-1116C233.8514,-1116 144.4991,-1116 144.4991,-1116 138.4991,-1116 132.4991,-1110 132.4991,-1104 132.4991,-1104 132.4991,-1092 132.4991,-1092 132.4991,-1086 138.4991,-1080 144.4991,-1080 144.4991,-1080 233.8514,-1080 233.8514,-1080 239.8514,-1080 245.8514,-1086 245.8514,-1092 245.8514,-1092 245.8514,-1104 245.8514,-1104 245.8514,-1110 239.8514,-1116 233.8514,-1116"/>
<text text-anchor="middle" x="189.1753" y="-1095" font-family="sans" font-size="10.00" fill="#000000">adapter_removal_paired</text>
</g>
<!-- 32&#45;&gt;28 -->
<g id="edge48" class="edge">
<title>32-&gt;28</title>
<path fill="none" stroke="#c0c0c0" stroke-width="2" d="M189.1753,-1079.8314C189.1753,-1072.131 189.1753,-1062.9743 189.1753,-1054.4166"/>
<polygon fill="#c0c0c0" stroke="#c0c0c0" stroke-width="2" points="192.6754,-1054.4132 189.1753,-1044.4133 185.6754,-1054.4133 192.6754,-1054.4132"/>
</g>
<!-- 33 -->
<g id="node34" class="node">
<title>33</title>
<path fill="none" stroke="#97d856" stroke-width="2" stroke-dasharray="5,2" d="M469.6668,-1196C469.6668,-1196 414.6837,-1196 414.6837,-1196 408.6837,-1196 402.6837,-1190 402.6837,-1184 402.6837,-1184 402.6837,-1164 402.6837,-1164 402.6837,-1158 408.6837,-1152 414.6837,-1152 414.6837,-1152 469.6668,-1152 469.6668,-1152 475.6668,-1152 481.6668,-1158 481.6668,-1164 481.6668,-1164 481.6668,-1184 481.6668,-1184 481.6668,-1190 475.6668,-1196 469.6668,-1196"/>
<text text-anchor="middle" x="442.1753" y="-1183" font-family="sans" font-size="10.00" fill="#000000">sample_intake</text>
<text text-anchor="middle" x="442.1753" y="-1171" font-family="sans" font-size="10.00" fill="#000000">rp: 1</text>
<text text-anchor="middle" x="442.1753" y="-1159" font-family="sans" font-size="10.00" fill="#000000">sample: TEST1</text>
</g>
<!-- 33&#45;&gt;31 -->
<g id="edge52" class="edge">
<title>33-&gt;31</title>
<path fill="none" stroke="#c0c0c0" stroke-width="2" d="M456.3172,-1151.6086C461.5715,-1143.2893 467.5887,-1133.7621 473.0791,-1125.069"/>
<polygon fill="#c0c0c0" stroke="#c0c0c0" stroke-width="2" points="476.175,-1126.7214 478.5558,-1116.3975 470.2566,-1122.9834 476.175,-1126.7214"/>
</g>
<!-- 34 -->
<g id="node35" class="node">
<title>34</title>
<path fill="none" stroke="#97d856" stroke-width="2" stroke-dasharray="5,2" d="M565.6668,-1196C565.6668,-1196 510.6837,-1196 510.6837,-1196 504.6837,-1196 498.6837,-1190 498.6837,-1184 498.6837,-1184 498.6837,-1164 498.6837,-1164 498.6837,-1158 504.6837,-1152 510.6837,-1152 510.6837,-1152 565.6668,-1152 565.6668,-1152 571.6668,-1152 577.6668,-1158 577.6668,-1164 577.6668,-1164 577.6668,-1184 577.6668,-1184 577.6668,-1190 571.6668,-1196 565.6668,-1196"/>
<text text-anchor="middle" x="538.1753" y="-1183" font-family="sans" font-size="10.00" fill="#000000">sample_intake</text>
<text text-anchor="middle" x="538.1753" y="-1171" font-family="sans" font-size="10.00" fill="#000000">rp: 2</text>
<text text-anchor="middle" x="538.1753" y="-1159" font-family="sans" font-size="10.00" fill="#000000">sample: TEST1</text>
</g>
<!-- 34&#45;&gt;31 -->
<g id="edge53" class="edge">
<title>34-&gt;31</title>
<path fill="none" stroke="#c0c0c0" stroke-width="2" d="M524.0333,-1151.6086C518.779,-1143.2893 512.7618,-1133.7621 507.2715,-1125.069"/>
<polygon fill="#c0c0c0" stroke="#c0c0c0" stroke-width="2" points="510.0939,-1122.9834 501.7947,-1116.3975 504.1755,-1126.7214 510.0939,-1122.9834"/>
</g>
<!-- 35 -->
<g id="node36" class="node">
<title>35</title>
<path fill="none" stroke="#97d856" stroke-width="2" stroke-dasharray="5,2" d="M168.6668,-1196C168.6668,-1196 113.6837,-1196 113.6837,-1196 107.6837,-1196 101.6837,-1190 101.6837,-1184 101.6837,-1184 101.6837,-1164 101.6837,-1164 101.6837,-1158 107.6837,-1152 113.6837,-1152 113.6837,-1152 168.6668,-1152 168.6668,-1152 174.6668,-1152 180.6668,-1158 180.6668,-1164 180.6668,-1164 180.6668,-1184 180.6668,-1184 180.6668,-1190 174.6668,-1196 168.6668,-1196"/>
<text text-anchor="middle" x="141.1753" y="-1183" font-family="sans" font-size="10.00" fill="#000000">sample_intake</text>
<text text-anchor="middle" x="141.1753" y="-1171" font-family="sans" font-size="10.00" fill="#000000">rp: 1</text>
<text text-anchor="middle" x="141.1753" y="-1159" font-family="sans" font-size="10.00" fill="#000000">sample: TEST2</text>
</g>
<!-- 35&#45;&gt;32 -->
<g id="edge54" class="edge">
<title>35-&gt;32</title>
<path fill="none" stroke="#c0c0c0" stroke-width="2" d="M155.3172,-1151.6086C160.5715,-1143.2893 166.5887,-1133.7621 172.0791,-1125.069"/>
<polygon fill="#c0c0c0" stroke="#c0c0c0" stroke-width="2" points="175.175,-1126.7214 177.5558,-1116.3975 169.2566,-1122.9834 175.175,-1126.7214"/>
</g>
<!-- 36 -->
<g id="node37" class="node">
<title>36</title>
<path fill="none" stroke="#97d856" stroke-width="2" stroke-dasharray="5,2" d="M264.6668,-1196C264.6668,-1196 209.6837,-1196 209.6837,-1196 203.6837,-1196 197.6837,-1190 197.6837,-1184 197.6837,-1184 197.6837,-1164 197.6837,-1164 197.6837,-1158 203.6837,-1152 209.6837,-1152 209.6837,-1152 264.6668,-1152 264.6668,-1152 270.6668,-1152 276.6668,-1158 276.6668,-1164 276.6668,-1164 276.6668,-1184 276.6668,-1184 276.6668,-1190 270.6668,-1196 264.6668,-1196"/>
<text text-anchor="middle" x="237.1753" y="-1183" font-family="sans" font-size="10.00" fill="#000000">sample_intake</text>
<text text-anchor="middle" x="237.1753" y="-1171" font-family="sans" font-size="10.00" fill="#000000">rp: 2</text>
<text text-anchor="middle" x="237.1753" y="-1159" font-family="sans" font-size="10.00" fill="#000000">sample: TEST2</text>
</g>
<!-- 36&#45;&gt;32 -->
<g id="edge55" class="edge">
<title>36-&gt;32</title>
<path fill="none" stroke="#c0c0c0" stroke-width="2" d="M223.0333,-1151.6086C217.779,-1143.2893 211.7618,-1133.7621 206.2715,-1125.069"/>
<polygon fill="#c0c0c0" stroke="#c0c0c0" stroke-width="2" points="209.0939,-1122.9834 200.7947,-1116.3975 203.1755,-1126.7214 209.0939,-1122.9834"/>
</g>
</g>
</svg>